<svg width="1060" height="208" viewBox="0 0 1060 208" fill="none" xmlns="http://www.w3.org/2000/svg">
<path fill-rule="evenodd" clip-rule="evenodd" d="M132.404 134.669C132.407 134.34 132.417 134.008 132.435 133.676C133.008 123.274 141.605 115.131 152.022 115.124C162.839 115.117 171.621 123.86 171.667 134.669H132.404ZM105.285 134.669C105.159 129.617 101.174 125.42 96.0401 125.127C90.6327 124.818 85.9976 128.951 85.6891 134.359C85.6832 134.463 85.6789 134.566 85.6763 134.669H105.285ZM65.252 134.669C65.1141 131.461 62.5655 128.815 59.2908 128.627L59.2714 128.624C55.7741 128.429 52.7808 131.104 52.5841 134.601C52.5828 134.623 52.5817 134.646 52.5806 134.669H65.252ZM344.005 134.669C344.181 131.185 341.514 128.209 338.028 128.01C334.531 127.814 331.537 130.489 331.341 133.987C331.327 134.216 331.327 134.444 331.338 134.669H344.005ZM310.901 134.669C311.037 129.396 306.961 124.933 301.656 124.63C296.249 124.322 291.614 128.454 291.305 133.863C291.29 134.134 291.286 134.402 291.292 134.669H310.901ZM264.18 134.669C264.181 134.618 264.181 134.567 264.181 134.516C264.181 124.107 256.054 115.509 245.661 114.924V114.954C234.84 114.338 225.569 122.611 224.953 133.432C224.929 133.846 224.919 134.259 224.922 134.669H264.18ZM133.965 11.2357C135.554 14.3577 134.312 18.1756 131.191 19.7652C131.188 19.7676 131.182 19.7688 131.178 19.7712C128.043 21.3498 124.22 20.0869 122.641 16.9515C121.082 13.8344 122.329 10.0433 125.435 8.4622C128.557 6.87264 132.375 8.1149 133.965 11.2357ZM155.442 41.3195C157.879 46.1525 155.936 52.0457 151.103 54.4816C146.267 56.9139 140.375 54.971 137.938 50.1379C135.505 45.3061 137.449 39.4166 142.279 36.9807C147.112 34.5435 153.006 36.4865 155.442 41.3195ZM95.2896 76.0274C92.8464 79.7579 87.8409 80.801 84.1105 78.3565C80.3813 75.9133 79.3406 70.9078 81.7814 67.1774C84.2246 63.447 89.2301 62.4039 92.9605 64.8483C96.6909 67.2916 97.7341 72.297 95.2896 76.0274ZM139.264 101.515C135.772 106.842 128.622 108.327 123.296 104.835C123.291 104.831 123.286 104.829 123.281 104.825C117.961 101.33 116.482 94.1841 119.977 88.8641C123.469 83.5393 130.618 82.0542 135.944 85.5466C141.272 89.039 142.757 96.1889 139.264 101.515ZM257.704 50.886C254.732 55.4142 248.651 56.6759 244.123 53.7044C239.598 50.733 238.333 44.648 241.304 40.1234C244.276 35.5951 250.357 34.3335 254.885 37.3049C259.414 40.2764 260.675 46.3577 257.704 50.886ZM273.015 17.2636C271.097 20.195 267.166 21.0147 264.236 19.0973L264.225 19.09C261.298 17.1653 260.486 13.2333 262.409 10.3068C264.33 7.38386 268.255 6.56905 271.182 8.48404C274.113 10.4027 274.934 14.3322 273.015 17.2636ZM175.086 114.246C167.67 114.278 160.877 110.104 157.553 103.475V103.453C152.674 93.7736 156.566 81.9728 166.245 77.0948C175.925 72.2157 187.726 76.1076 192.604 85.787C193.986 88.5253 194.706 91.5514 194.706 94.6188C194.708 105.457 185.924 114.244 175.086 114.246ZM314.904 67.4737C316.927 71.4482 315.346 76.3104 311.371 78.3335L311.342 78.348C307.354 80.3529 302.496 78.7463 300.489 74.7585C298.498 70.7888 300.086 65.9558 304.044 63.9412C308.018 61.9182 312.88 63.4992 314.904 67.4737ZM256.528 100.074C253.66 94.3869 255.945 87.4506 261.632 84.5824C267.325 81.7202 274.258 84.0092 277.128 89.6959C279.989 95.3826 277.703 102.31 272.02 105.177C266.333 108.046 259.397 105.76 256.528 100.074ZM206.068 8.52655C205.819 12.9783 202.007 16.3857 197.554 16.1367C197.537 16.1367 197.522 16.1343 197.505 16.1343C193.058 15.8611 189.673 12.0348 189.947 7.58788C190.214 3.15072 194.02 -0.236049 198.458 0.0128893C202.91 0.261826 206.317 4.07482 206.068 8.52655ZM209.612 56.059C209.261 62.4185 203.82 67.2903 197.461 66.9406L197.44 66.9382C191.081 66.5775 186.219 61.1288 186.581 54.7694C186.942 48.4185 192.378 43.5587 198.73 43.9084C205.091 44.2594 209.961 49.6996 209.612 56.059ZM210.566 110.907C201.508 104.979 198.972 92.8313 204.899 83.7736C208.532 78.2387 214.707 74.9054 221.327 74.9066C225.131 74.9127 228.85 76.0238 232.032 78.1064C241.089 84.0335 243.626 96.1817 237.699 105.239C231.772 114.297 219.624 116.834 210.566 110.907Z" fill="#FF9600"/>
<path fill-rule="evenodd" clip-rule="evenodd" d="M132.404 134.669C132.407 134.34 132.417 134.008 132.435 133.676C133.008 123.274 141.605 115.131 152.022 115.124C162.839 115.117 171.621 123.86 171.667 134.669H132.404ZM105.285 134.669C105.159 129.617 101.174 125.42 96.0401 125.127C90.6327 124.818 85.9976 128.951 85.6891 134.359C85.6832 134.463 85.6789 134.566 85.6763 134.669H105.285ZM65.252 134.669C65.1141 131.461 62.5655 128.815 59.2908 128.627L59.2714 128.624C55.7741 128.429 52.7808 131.104 52.5841 134.601C52.5828 134.623 52.5817 134.646 52.5806 134.669H65.252ZM344.005 134.669C344.181 131.185 341.514 128.209 338.028 128.01C334.531 127.814 331.537 130.489 331.341 133.987C331.327 134.216 331.327 134.444 331.338 134.669H344.005ZM310.901 134.669C311.037 129.396 306.961 124.933 301.656 124.63C296.249 124.322 291.614 128.454 291.305 133.863C291.29 134.134 291.286 134.402 291.292 134.669H310.901ZM264.18 134.669C264.181 134.618 264.181 134.567 264.181 134.516C264.181 124.107 256.054 115.509 245.661 114.924V114.954C234.84 114.338 225.569 122.611 224.953 133.432C224.929 133.846 224.919 134.259 224.922 134.669H264.18ZM133.965 11.2357C135.554 14.3577 134.312 18.1756 131.191 19.7652C131.188 19.7676 131.182 19.7688 131.178 19.7712C128.043 21.3498 124.22 20.0869 122.641 16.9515C121.082 13.8344 122.329 10.0433 125.435 8.4622C128.557 6.87264 132.375 8.1149 133.965 11.2357ZM155.442 41.3195C157.879 46.1525 155.936 52.0457 151.103 54.4816C146.267 56.9139 140.375 54.971 137.938 50.1379C135.505 45.3061 137.449 39.4166 142.279 36.9807C147.112 34.5435 153.006 36.4865 155.442 41.3195ZM95.2896 76.0274C92.8464 79.7579 87.8409 80.801 84.1105 78.3565C80.3813 75.9133 79.3406 70.9078 81.7814 67.1774C84.2246 63.447 89.2301 62.4039 92.9605 64.8483C96.6909 67.2916 97.7341 72.297 95.2896 76.0274ZM139.264 101.515C135.772 106.842 128.622 108.327 123.296 104.835C123.291 104.831 123.286 104.829 123.281 104.825C117.961 101.33 116.482 94.1841 119.977 88.8641C123.469 83.5393 130.618 82.0542 135.944 85.5466C141.272 89.039 142.757 96.1889 139.264 101.515ZM257.704 50.886C254.732 55.4142 248.651 56.6759 244.123 53.7044C239.598 50.733 238.333 44.648 241.304 40.1234C244.276 35.5951 250.357 34.3335 254.885 37.3049C259.414 40.2764 260.675 46.3577 257.704 50.886ZM273.015 17.2636C271.097 20.195 267.166 21.0147 264.236 19.0973L264.225 19.09C261.298 17.1653 260.486 13.2333 262.409 10.3068C264.33 7.38386 268.255 6.56905 271.182 8.48404C274.113 10.4027 274.934 14.3322 273.015 17.2636ZM175.086 114.246C167.67 114.278 160.877 110.104 157.553 103.475V103.453C152.674 93.7736 156.566 81.9728 166.245 77.0948C175.925 72.2157 187.726 76.1076 192.604 85.787C193.986 88.5253 194.706 91.5514 194.706 94.6188C194.708 105.457 185.924 114.244 175.086 114.246ZM314.904 67.4737C316.927 71.4482 315.346 76.3104 311.371 78.3335L311.342 78.348C307.354 80.3529 302.496 78.7463 300.489 74.7585C298.498 70.7888 300.086 65.9558 304.044 63.9412C308.018 61.9182 312.88 63.4992 314.904 67.4737ZM256.528 100.074C253.66 94.3869 255.945 87.4506 261.632 84.5824C267.325 81.7202 274.258 84.0092 277.128 89.6959C279.989 95.3826 277.703 102.31 272.02 105.177C266.333 108.046 259.397 105.76 256.528 100.074ZM206.068 8.52655C205.819 12.9783 202.007 16.3857 197.554 16.1367C197.537 16.1367 197.522 16.1343 197.505 16.1343C193.058 15.8611 189.673 12.0348 189.947 7.58788C190.214 3.15072 194.02 -0.236049 198.458 0.0128893C202.91 0.261826 206.317 4.07482 206.068 8.52655ZM209.612 56.059C209.261 62.4185 203.82 67.2903 197.461 66.9406L197.44 66.9382C191.081 66.5775 186.219 61.1288 186.581 54.7694C186.942 48.4185 192.378 43.5587 198.73 43.9084C205.091 44.2594 209.961 49.6996 209.612 56.059ZM210.566 110.907C201.508 104.979 198.972 92.8313 204.899 83.7736C208.532 78.2387 214.707 74.9054 221.327 74.9066C225.131 74.9127 228.85 76.0238 232.032 78.1064C241.089 84.0335 243.626 96.1817 237.699 105.239C231.772 114.297 219.624 116.834 210.566 110.907Z" fill="#FF9600"/>
<path d="M396.053 134.669H3.94657C1.76693 134.669 0 136.436 0 138.616C0 140.796 1.76693 142.563 3.94657 142.563H396.053C398.233 142.563 400 140.796 400 138.616C400 136.436 398.233 134.669 396.053 134.669Z" fill="#0096FF"/>
<path d="M123.558 155.92H22.4041C20.2245 155.92 18.4575 157.687 18.4575 159.866C18.4575 162.046 20.2245 163.813 22.4041 163.813H123.558C125.737 163.813 127.504 162.046 127.504 159.866C127.504 157.687 125.737 155.92 123.558 155.92Z" fill="#0096FF"/>
<path d="M356.284 155.92H261.688C259.341 155.92 257.438 157.823 257.438 160.17C257.438 162.517 259.341 164.42 261.688 164.42H356.284C358.632 164.42 360.535 162.517 360.535 160.17C360.535 157.823 358.632 155.92 356.284 155.92Z" fill="#0096FF"/>
<path d="M225.62 155.92H159.929C156.709 155.92 154.098 157.551 154.098 159.563C154.098 161.575 156.709 163.206 159.929 163.206H225.62C228.84 163.206 231.451 161.575 231.451 159.563C231.451 157.551 228.84 155.92 225.62 155.92Z" fill="#0096FF"/>
<path d="M326.594 177.17H246.57C244.39 177.17 242.623 178.937 242.623 181.117C242.623 183.297 244.39 185.064 246.57 185.064H326.594C328.774 185.064 330.54 183.297 330.54 181.117C330.54 178.937 328.774 177.17 326.594 177.17Z" fill="#0096FF"/>
<path d="M209.047 177.17H71.3418C69.4975 177.17 68.0024 178.665 68.0024 180.51C68.0024 182.354 69.4975 183.849 71.3418 183.849H209.047C210.891 183.849 212.386 182.354 212.386 180.51C212.386 178.665 210.891 177.17 209.047 177.17Z" fill="#0096FF"/>
<path d="M238.069 198.421H176.381C173.866 198.421 171.828 200.46 171.828 202.975C171.828 205.49 173.866 207.529 176.381 207.529H238.069C240.584 207.529 242.623 205.49 242.623 202.975C242.623 200.46 240.584 198.421 238.069 198.421Z" fill="#0096FF"/>
<path d="M516.05 160V55H545.75V160H516.05ZM452.45 160V55H482.15V160H452.45ZM463.7 120.7L463.85 94.6H532.4V120.7H463.7ZM594.663 160V80.65H562.863V55H657.213V80.65H624.363V160H594.663ZM674.374 160V55H704.074V134.35H749.824V160H674.374ZM752.116 160L793.966 55H817.966L859.516 160H829.966L811.966 111.25C810.966 108.55 810.066 106.05 809.266 103.75C808.466 101.45 807.716 99.2 807.016 97C806.316 94.8 805.616 92.55 804.916 90.25C804.316 87.95 803.766 85.45 803.266 82.75L808.066 82.6C807.466 85.5 806.816 88.1 806.116 90.4C805.516 92.7 804.866 94.9 804.166 97C803.466 99.1 802.666 101.3 801.766 103.6C800.966 105.9 800.066 108.45 799.066 111.25L781.066 160H752.116ZM772.516 142.6L781.366 121.6H829.966L838.216 142.6H772.516ZM870.223 160V55H917.773C925.173 55 931.423 56.05 936.523 58.15C941.723 60.25 945.673 63.2 948.373 67C951.073 70.8 952.423 75.3 952.423 80.5C952.423 86.7 950.973 91.85 948.073 95.95C945.173 100.05 940.973 102.8 935.473 104.2L935.023 101.35C939.623 102.45 943.623 104.25 947.023 106.75C950.523 109.15 953.223 112.15 955.123 115.75C957.023 119.25 957.973 123.3 957.973 127.9C957.973 133.3 956.973 138 954.973 142C953.073 146 950.323 149.35 946.723 152.05C943.223 154.75 939.123 156.75 934.423 158.05C929.823 159.35 924.773 160 919.273 160H870.223ZM897.973 136.15H918.373C920.673 136.15 922.573 135.8 924.073 135.1C925.673 134.3 926.873 133.15 927.673 131.65C928.573 130.15 929.023 128.35 929.023 126.25C929.023 124.25 928.573 122.6 927.673 121.3C926.773 120 925.473 119 923.773 118.3C922.073 117.5 920.023 117.1 917.623 117.1H897.973V136.15ZM897.973 96.55H912.973C915.373 96.55 917.373 96.2 918.973 95.5C920.573 94.8 921.773 93.8 922.573 92.5C923.373 91.1 923.773 89.5 923.773 87.7C923.773 85 922.873 82.85 921.073 81.25C919.273 79.65 916.423 78.85 912.523 78.85H897.973V96.55ZM1012.57 161.5C1005.07 161.5 998.371 160.65 992.471 158.95C986.671 157.25 981.521 154.8 977.021 151.6C972.621 148.4 968.671 144.65 965.171 140.35L982.571 120.7C987.571 127.2 992.721 131.55 998.021 133.75C1003.32 135.85 1008.47 136.9 1013.47 136.9C1015.67 136.9 1017.67 136.7 1019.47 136.3C1021.27 135.8 1022.62 135.05 1023.52 134.05C1024.52 132.95 1025.02 131.6 1025.02 130C1025.02 128.6 1024.62 127.4 1023.82 126.4C1023.02 125.4 1021.92 124.55 1020.52 123.85C1019.12 123.05 1017.57 122.35 1015.87 121.75C1014.17 121.15 1012.47 120.7 1010.77 120.4C1009.07 120 1007.42 119.6 1005.82 119.2C999.921 117.9 994.771 116.25 990.371 114.25C985.971 112.25 982.271 109.9 979.271 107.2C976.371 104.4 974.171 101.2 972.671 97.6C971.271 94 970.571 89.95 970.571 85.45C970.571 80.55 971.721 76.05 974.021 71.95C976.321 67.85 979.371 64.35 983.171 61.45C986.971 58.45 991.321 56.2 996.221 54.7C1001.22 53.1 1006.42 52.3 1011.82 52.3C1019.22 52.3 1025.52 53.05 1030.72 54.55C1035.92 55.95 1040.27 58 1043.77 60.7C1047.37 63.4 1050.47 66.55 1053.07 70.15L1035.37 87.25C1033.27 84.95 1030.97 83.05 1028.47 81.55C1026.07 80.05 1023.57 78.95 1020.97 78.25C1018.37 77.45 1015.72 77.05 1013.02 77.05C1010.52 77.05 1008.32 77.3 1006.42 77.8C1004.62 78.3 1003.22 79.05 1002.22 80.05C1001.22 80.95 1000.72 82.2 1000.72 83.8C1000.72 85.2 1001.27 86.45 1002.37 87.55C1003.47 88.55 1004.87 89.4 1006.57 90.1C1008.27 90.8 1010.07 91.4 1011.97 91.9C1013.97 92.3 1015.77 92.65 1017.37 92.95C1022.87 94.05 1027.87 95.5 1032.37 97.3C1036.97 99 1040.97 101.2 1044.37 103.9C1047.77 106.5 1050.37 109.7 1052.17 113.5C1053.97 117.3 1054.87 121.75 1054.87 126.85C1054.87 134.35 1052.97 140.7 1049.17 145.9C1045.47 151 1040.42 154.9 1034.02 157.6C1027.72 160.2 1020.57 161.5 1012.57 161.5Z" fill="white"/>
</svg>
