<svg width="432" height="95" viewBox="0 0 432 95" fill="none" xmlns="http://www.w3.org/2000/svg">
<path d="M18.3977 55.1591V93H0.244318V5.72727H17.8864V39.0938H18.6534C20.1307 35.2301 22.517 32.2045 25.8125 30.017C29.108 27.8011 33.2415 26.6932 38.2131 26.6932C42.7585 26.6932 46.7216 27.6875 50.1023 29.6761C53.5114 31.6364 56.1534 34.4631 58.0284 38.1562C59.9318 41.821 60.8693 46.2102 60.8409 51.3239V93H42.6875V54.5625C42.7159 50.5284 41.6932 47.3892 39.6193 45.1449C37.5739 42.9006 34.7045 41.7784 31.0114 41.7784C28.5398 41.7784 26.3523 42.304 24.4489 43.3551C22.5739 44.4062 21.0966 45.9403 20.017 47.9574C18.9659 49.946 18.4261 52.3466 18.3977 55.1591ZM104.701 94.2784C98.0817 94.2784 92.3572 92.8722 87.5277 90.0597C82.7266 87.2187 79.0192 83.2699 76.4055 78.2131C73.7919 73.1278 72.4851 67.233 72.4851 60.5284C72.4851 53.767 73.7919 47.858 76.4055 42.8011C79.0192 37.7159 82.7266 33.767 87.5277 30.9545C92.3572 28.1136 98.0817 26.6932 104.701 26.6932C111.32 26.6932 117.031 28.1136 121.832 30.9545C126.661 33.767 130.383 37.7159 132.996 42.8011C135.61 47.858 136.917 53.767 136.917 60.5284C136.917 67.233 135.61 73.1278 132.996 78.2131C130.383 83.2699 126.661 87.2187 121.832 90.0597C117.031 92.8722 111.32 94.2784 104.701 94.2784ZM104.786 80.2159C107.798 80.2159 110.312 79.3636 112.329 77.6591C114.346 75.9261 115.866 73.5682 116.888 70.5852C117.94 67.6023 118.465 64.2074 118.465 60.4006C118.465 56.5938 117.94 53.1989 116.888 50.2159C115.866 47.233 114.346 44.875 112.329 43.142C110.312 41.4091 107.798 40.5426 104.786 40.5426C101.746 40.5426 99.1896 41.4091 97.1158 43.142C95.0703 44.875 93.522 47.233 92.4709 50.2159C91.4482 53.1989 90.9368 56.5938 90.9368 60.4006C90.9368 64.2074 91.4482 67.6023 92.4709 70.5852C93.522 73.5682 95.0703 75.9261 97.1158 77.6591C99.1896 79.3636 101.746 80.2159 104.786 80.2159ZM148.721 93V27.5455H166.32V38.9659H167.002C168.195 34.9034 170.198 31.8352 173.011 29.7614C175.823 27.6591 179.062 26.608 182.727 26.608C183.636 26.608 184.616 26.6648 185.667 26.7784C186.718 26.892 187.641 27.0483 188.437 27.2472V43.3551C187.585 43.0994 186.406 42.8722 184.9 42.6733C183.394 42.4744 182.016 42.375 180.766 42.375C178.096 42.375 175.71 42.9574 173.607 44.1222C171.533 45.2585 169.886 46.8494 168.664 48.8949C167.471 50.9403 166.874 53.2983 166.874 55.9688V93H148.721ZM197.822 93V27.5455H215.976V93H197.822ZM206.942 19.108C204.243 19.108 201.928 18.2131 199.996 16.4233C198.092 14.6051 197.141 12.4318 197.141 9.90341C197.141 7.40341 198.092 5.25852 199.996 3.46875C201.928 1.65057 204.243 0.741473 206.942 0.741473C209.641 0.741473 211.942 1.65057 213.845 3.46875C215.777 5.25852 216.743 7.40341 216.743 9.90341C216.743 12.4318 215.777 14.6051 213.845 16.4233C211.942 18.2131 209.641 19.108 206.942 19.108ZM230.177 93V82.1761L262.222 42.5028V42.0341H231.285V27.5455H284.083V39.3494L253.998 78.0426V78.5114H285.191V93H230.177ZM326.771 94.2784C320.152 94.2784 314.428 92.8722 309.598 90.0597C304.797 87.2187 301.089 83.2699 298.476 78.2131C295.862 73.1278 294.555 67.233 294.555 60.5284C294.555 53.767 295.862 47.858 298.476 42.8011C301.089 37.7159 304.797 33.767 309.598 30.9545C314.428 28.1136 320.152 26.6932 326.771 26.6932C333.391 26.6932 339.101 28.1136 343.902 30.9545C348.732 33.767 352.453 37.7159 355.067 42.8011C357.68 47.858 358.987 53.767 358.987 60.5284C358.987 67.233 357.68 73.1278 355.067 78.2131C352.453 83.2699 348.732 87.2187 343.902 90.0597C339.101 92.8722 333.391 94.2784 326.771 94.2784ZM326.857 80.2159C329.868 80.2159 332.382 79.3636 334.399 77.6591C336.416 75.9261 337.936 73.5682 338.959 70.5852C340.01 67.6023 340.536 64.2074 340.536 60.4006C340.536 56.5938 340.01 53.1989 338.959 50.2159C337.936 47.233 336.416 44.875 334.399 43.142C332.382 41.4091 329.868 40.5426 326.857 40.5426C323.817 40.5426 321.26 41.4091 319.186 43.142C317.141 44.875 315.592 47.233 314.541 50.2159C313.518 53.1989 313.007 56.5938 313.007 60.4006C313.007 64.2074 313.518 67.6023 314.541 70.5852C315.592 73.5682 317.141 75.9261 319.186 77.6591C321.26 79.3636 323.817 80.2159 326.857 80.2159ZM388.945 55.1591V93H370.791V27.5455H388.092V39.0938H388.859C390.308 35.2869 392.737 32.2756 396.146 30.0597C399.555 27.8153 403.689 26.6932 408.547 26.6932C413.092 26.6932 417.055 27.6875 420.436 29.6761C423.817 31.6648 426.445 34.5057 428.32 38.1989C430.195 41.8636 431.132 46.2386 431.132 51.3239V93H412.979V54.5625C413.007 50.5568 411.984 47.4318 409.911 45.1875C407.837 42.9148 404.982 41.7784 401.345 41.7784C398.902 41.7784 396.743 42.304 394.868 43.3551C393.021 44.4062 391.572 45.9403 390.521 47.9574C389.499 49.946 388.973 52.3466 388.945 55.1591Z" fill="white"/>
</svg>
